<svg xmlns="http://www.w3.org/2000/svg" viewBox="0 0 96 96" id="feedback">
  <path fill="#ff7d3f" d="M58.29,22.19,75,64.8a3.21,3.21,0,0,1-3.38,4.38c-9.2-1.14-15.24-2.09-25-1.16-10.34,1-10,1.21-25.81,7.42a5.45,5.45,0,0,1-7.06-3.07L8.2,58.22a5.46,5.46,0,0,1,3.09-7.06c15.26-6,15.52-5.62,24-12.07C43.06,33.17,47,28.23,52.83,21.28A3.22,3.22,0,0,1,58.29,22.19Z"></path>
  <path fill="#ffba4e" d="M58.29,22.19,71.12,55a3.23,3.23,0,0,1-3.39,4.38c-9.2-1.14-15.23-2.09-25-1.16l-.43,0a3.66,3.66,0,0,1-3.77-2.31L33.38,42.71A2.38,2.38,0,0,1,34.16,40c8.73-6.63,11.6-10.3,18.67-18.67A3.22,3.22,0,0,1,58.29,22.19Z"></path>
  <path fill="#ffdd67" d="M41.84 39.18c-2.08 1.8-3.92 3.21-5.38 4.32a1.71 1.71 0 00-.56 2l.62 1.6a1.8 1.8 0 002.33 1.19L45 45.9a1.33 1.33 0 00.76-1.72L44 39.7A1.34 1.34 0 0041.84 39.18zM45.8 36.42l2.73 7a1 1 0 001.35.59l1.68-.66A1 1 0 0052.15 42l-3-7.7a1 1 0 00-1.71-.35L46 35.3A1 1 0 0045.8 36.42z"></path>
  <path fill="#fff" d="M43.76,39.22l.31.78a1,1,0,0,1-.26,1.08c-2.48,2.19-4.65,3.86-6.32,5.13A1,1,0,0,1,36,45.79L35.68,45A1,1,0,0,1,36,43.84c1.62-1.22,3.76-2.84,6.23-5A1,1,0,0,1,43.76,39.22Z"></path>
  <path fill="#64a6ee" d="M25.46,45.48,35.06,70c-2,.6-1.9.61-14.26,5.45a5.45,5.45,0,0,1-7.06-3.07L8.2,58.22a5.47,5.47,0,0,1,3.09-7.06C24.2,46.1,23.66,46.36,25.46,45.48Z"></path>
  <path fill="#87ceff" d="M11.58,51.05a5.4,5.4,0,0,0-3,2.41l2.83,7.21a3.23,3.23,0,0,0,2.17,2,1.49,1.49,0,0,0,1.74-2Z"></path>
  <rect width="3.65" height="2.88" x="9.44" y="53.82" fill="#fff" rx=".87" transform="rotate(-21.38 11.266 55.26)"></rect>
  <path fill="#64a6ee" d="M16.56,62.24,19.79,61l-3.23,1.28Z"></path>
  <path fill="#4b79df" d="M31.35,60.52,35.06,70c-2,.6-1.9.61-14.26,5.45a5.45,5.45,0,0,1-7.06-3.07L10,62.89A5.45,5.45,0,0,0,17.09,66C30,60.91,29.43,61.1,31.35,60.52Z"></path>
  <path fill="#ffba4e" d="M52.93,63.15c-.59.23-2.36-.15-8.37.43-2.75.26-4,.36-5.5.59a1.05,1.05,0,0,1-1.2-.88,1.07,1.07,0,0,1,.88-1.2,106.89,106.89,0,0,1,13.82-1A1.06,1.06,0,0,1,52.93,63.15Z"></path>
  <rect width="6.04" height="31.06" x="30.05" y="41.11" fill="#352d5b" rx="1.66" transform="rotate(-21.38 33.088 56.637)"></rect>
  <rect width="6.04" height="25.36" x="29.01" y="41.3" fill="#3f416a" rx="1.66" transform="rotate(-21.38 32.05 54)"></rect>
  <rect width="2.65" height="9.4" x="29" y="44.91" fill="#536997" rx=".73" transform="rotate(-21.38 30.327 49.614)"></rect>
  <rect width="2.65" height="4.02" x="28.93" y="47.42" fill="#6291c9" rx=".73" transform="rotate(-21.38 30.25 49.435)"></rect>
  <rect width="6.88" height="26.08" x="17.83" y="48.22" fill="#8c97e4" transform="rotate(-21.38 21.27 61.264)"></rect>
  <rect width="6.88" height="16.02" x="16" y="48.56" fill="#e1e7f8" transform="rotate(-21.38 19.438 56.584)"></rect>
  <rect width="6.88" height="2.11" x="20.65" y="67.42" fill="#ff7d3f" transform="rotate(-21.38 24.103 68.491)"></rect>
  <rect width="6.88" height="2.11" x="18.77" y="62.61" fill="#ff7d3f" transform="rotate(-21.38 22.216 63.664)"></rect>
  <rect width="6.88" height="2.11" x="16.89" y="57.8" fill="#ffba4e" transform="rotate(-21.38 20.324 58.863)"></rect>
  <rect width="6.88" height="2.11" x="15.01" y="53" fill="#ffba4e" transform="rotate(-21.38 18.459 54.067)"></rect>
  <path fill="#ffdd67" d="M50,24.61l2.46,6.3a1,1,0,0,1-.59,1.37,1.06,1.06,0,0,1-1.37-.6l-2.05-5.24Z"></path>
  <path fill="#ff7d3f" d="M61.41,56.59A1.06,1.06,0,0,1,60,56L52.73,37.31A1,1,0,0,1,53.32,36a1.05,1.05,0,0,1,1.37.59L62,55.23A1,1,0,0,1,61.41,56.59Z"></path>
  <path fill="#ff4b26" d="M64.73,62.18l2.53,6.47-2.38-.3L62.76,63a1.06,1.06,0,0,1,2-.77Z"></path>
  <path fill="#ff7d3f" d="M8.2,58.22l5.54,14.15-6.06-.22A2,2,0,0,1,5.9,70.89L3.45,64.62a2,2,0,0,1,.45-2.13Z"></path>
  <path fill="#ffba4e" d="M6.65,59.76,3.9,62.49a2,2,0,0,0-.45,2.13L4,66a2,2,0,0,0,1.78,1.26l1.32,0A1.68,1.68,0,0,0,8.7,65Z"></path>
  <rect width="6.04" height="5.96" x="31.14" y="56.43" fill="#4e5fb6" transform="rotate(-21.38 34.181 59.422)"></rect>
  <rect width="6.04" height="3.18" x="30.63" y="56.53" fill="#6782cf" transform="rotate(-21.38 33.66 58.116)"></rect>
  <path fill="#ff2353" d="M71.86,47.84,69.18,50,64.1,37l3.42-.25a2.7,2.7,0,0,1,2.71,1.71l2.46,6.28A2.7,2.7,0,0,1,71.86,47.84Z"></path>
  <path fill="#3f416a" d="M22.25,72.88h11.3a0,0,0,0,1,0,0v4.21a1.46,1.46,0,0,1-1.46,1.46H23.71a1.46,1.46,0,0,1-1.46-1.46V72.88a0,0,0,0,1,0,0Z" transform="rotate(-21.38 27.924 75.714)"></path>
  <rect width="11.3" height="2.54" x="21.68" y="72.98" fill="#3a3256" transform="rotate(-21.38 27.348 74.261)"></rect>
  <path fill="#4e5fb6" d="M43.12,89a3.47,3.47,0,0,1-4.7,4.43A26.14,26.14,0,0,1,25.81,79.59l6.44-2.54A19.24,19.24,0,0,0,41.5,87.19,3.38,3.38,0,0,1,43.12,89Z"></path>
  <path fill="#e1e7f8" d="M43.12,89a3.47,3.47,0,0,1-4.7,4.43A26.14,26.14,0,0,1,25.81,79.59l6.44-2.54A19.24,19.24,0,0,0,41.5,87.19,3.38,3.38,0,0,1,43.12,89Z"></path>
  <path fill="#c8cef8" d="M41,90.21a3.32,3.32,0,0,1-2-.32,26.08,26.08,0,0,1-11.32-11l4.63-1.82A19.24,19.24,0,0,0,41.5,87.19,1.62,1.62,0,0,1,41,90.21Z"></path>
  <rect width="4.35" height="13.93" x="60.46" y="38.09" fill="#ffd36c" rx="1.2" transform="rotate(-21.38 62.648 45.072)"></rect>
  <path fill="#87ceff" d="M23.49,46.31h2.67a0,0,0,0,1,0,0V57.89a.66.66,0,0,1-.66.66H24.16a.66.66,0,0,1-.66-.66V46.31a0,0,0,0,1,0,0Z" transform="rotate(-21.38 24.828 52.444)"></path>
  <path fill="#fff" d="M23.5,48.82h1.2a.73.73,0,0,1,.73.73V51.7a.64.64,0,0,1-.64.64H23.41a.64.64,0,0,1-.64-.64V49.55A.73.73,0,0,1,23.5,48.82Z" transform="rotate(-21.38 24.11 50.58)"></path>
  <path fill="#0fa98c" d="M29.09,28.91A15.42,15.42,0,1,0,25,33l7.81,1.72Z"></path>
  <path fill="#2dcc8c" d="M11.53 28.68a1.37 1.37 0 00-.59 2.6 12.34 12.34 0 0011 0 1.36 1.36 0 00-.65-2.56zM24.94 19.81a3.1 3.1 0 002.87-4.27 12.4 12.4 0 00-23 0 3.1 3.1 0 002.87 4.26z"></path>
  <path fill="#fff" d="M10 21.14H8.91a1 1 0 010-2H10a1 1 0 010 2zM17.42 21.14H16.35a1 1 0 010-2h1.07a1 1 0 010 2zM24.86 21.14H23.79a1 1 0 010-2h1.07a1 1 0 010 2z"></path>
  <path fill="#e1e7f8" d="M82.56,28.48l-5.77,5.78a2.09,2.09,0,0,1-3.57-1.48v-4.3h-.84a3.86,3.86,0,0,1-3.86-3.86V6.13a3.86,3.86,0,0,1,3.86-3.87H91.13A3.87,3.87,0,0,1,95,6.13V24.62a3.86,3.86,0,0,1-3.87,3.86Z"></path>
  <path fill="#fff" d="M92,14.16V7.69a2.43,2.43,0,0,0-2.43-2.43H73.94a2.42,2.42,0,0,0-2.42,2.43v6.47a1.56,1.56,0,0,0,1.56,1.56H90.44A1.56,1.56,0,0,0,92,14.16Z"></path>
  <path fill="#bec9f8" d="M73.22 28.49h-.84a3.86 3.86 0 01-3.86-3.87v-3a3.86 3.86 0 003.86 3.86h.84zM95 21.66v3a3.87 3.87 0 01-3.87 3.87H82.56l-5.77 5.77a2.09 2.09 0 01-3.57-1.48v-3a2.09 2.09 0 003.57 1.48l5.77-5.78h8.57A3.86 3.86 0 0095 21.66z"></path>
  <path fill="#c80f53" d="M87.3,14.68l-4.12,4.11a2,2,0,0,1-2.85,0l-5.41-5.41a3.92,3.92,0,0,1,5.54-5.54Z"></path>
  <path fill="#ff2353" d="M80.33,18.79l-4.11-4.11,6.84-6.84a3.92,3.92,0,1,1,5.54,5.54l-5.42,5.41A2,2,0,0,1,80.33,18.79Z"></path>
  <path fill="#ffd8b2" d="M79.61,67.8H76.36V56.64a2.79,2.79,0,0,0-5.46-.81L69.63,60A7.71,7.71,0,0,1,67,63.83L63.51,66.6A5.66,5.66,0,0,1,60,67.8H52.38V86.28c6.52,0,8.85-.18,12.6.75,4.74,1.17,5.19,1,14.63,1Z"></path>
  <path fill="#ffba8a" d="M71.32,73.88a6.69,6.69,0,0,1-2,.47v4.19a3.69,3.69,0,0,1-3.69,3.69H52.38v4.06c7.8,0,8.72-.24,13.55,1,3.92,1,6,.74,15.37.74a2.62,2.62,0,0,0,2.63-2.11A2.52,2.52,0,0,0,81.48,83a2.64,2.64,0,0,0,2.65-2.11,2.55,2.55,0,0,0-2.5-3h2.94a2.52,2.52,0,0,0,2.16-4Z"></path>
  <path fill="#ffba8a" d="M78.05,67.8A9.18,9.18,0,0,1,69.36,77a1.39,1.39,0,0,1-1.81-1.28,1.31,1.31,0,0,1,1.31-1.31,6.57,6.57,0,0,0,6.57-6.57,1.31,1.31,0,0,1,2.62,0Z"></path>
  <path fill="#ffd8b2" d="M85.85 85.12A2.87 2.87 0 0183 88H76.34a2.89 2.89 0 010-5.77H83A2.88 2.88 0 0185.85 85.12zM89 79.35a2.88 2.88 0 01-2.88 2.88H78.3a2.89 2.89 0 010-5.78h7.86A2.89 2.89 0 0189 79.35zM88 67.8a2.88 2.88 0 01-2.88 2.88H78.3a2.88 2.88 0 110-5.76h6.86A2.88 2.88 0 0188 67.8zM89.64 73.57a2.88 2.88 0 01-2.88 2.88H77.7a2.89 2.89 0 010-5.77h9.06A2.91 2.91 0 0189.64 73.57z"></path>
  <path fill="#ffc999" d="M77.58,88H76.34a2.89,2.89,0,0,1,0-5.77c1.28,0,2.3-.14,3.27.85A2.88,2.88,0,0,1,77.58,88Z"></path>
  <path fill="#ffc999" d="M83.64 79.35a2.88 2.88 0 01-2.89 2.88H78.3a2.89 2.89 0 010-5.78h2.45A2.91 2.91 0 0183.64 79.35zM79.75 70.68H78.3a2.88 2.88 0 110-5.76c1.44 0 2.49-.16 3.5.84A2.88 2.88 0 0179.75 70.68z"></path>
  <path fill="#ffc999" d="M84.24,73.57a2.88,2.88,0,0,1-2.89,2.88H77.7a2.89,2.89,0,0,1,0-5.77h3.65A2.9,2.9,0,0,1,84.24,73.57Z"></path>
  <rect width="11.45" height="22.04" x="47.39" y="65.96" fill="#e1e7f8" rx="1.75"></rect>
  <circle cx="53.11" cy="82.23" r="2.53" fill="#3f416a"></circle>
</svg>