<svg xmlns="http://www.w3.org/2000/svg" viewBox="0 0 64 64" id="nteraction">
  <path fill="#2b2e63" d="M36.9 35.3c-.4-.2-.9-.1-1.1.3-.8 1-8.1 9.7-8.9 11.5-.5 1.1-.5 2.3-.1 3.3.4 1.1 1.2 2 2.3 2.4.6.3 1.2.4 1.8.4.5 0 1-.1 1.6-.3 1.1-.4 2-1.2 2.4-2.3.8-1.8 2.4-13 2.6-14.3 0-.4-.2-.8-.6-1zm-3.8 14.5c-.3.6-.8 1-1.4 1.3-.6.2-1.3.2-1.9-.1-.6-.3-1-.7-1.3-1.3-.2-.6-.2-1.3.1-1.8.4-.9 3.6-4.9 6.4-8.3-.6 4.3-1.5 9.3-1.9 10.2z"></path>
  <path fill="#4ebde5" d="M35 39.5c-.7 4.4-1.6 9.4-1.9 10.3-.3.6-.8 1-1.4 1.3-.6.2-1.3.2-1.9-.1-.6-.3-1-.7-1.3-1.3-.2-.6-.2-1.3.1-1.8.5-1 3.6-4.9 6.4-8.4z"></path>
  <path fill="#36a9db" d="M28.7 47.8c-.3.6-.3 1.3-.1 1.8.2.6.7 1.1 1.3 1.3.6.3 1.3.3 1.9.1.6-.2 1.1-.7 1.4-1.3.4-.9 1.3-5.9 1.9-10.3-2.9 3.6-6 7.5-6.4 8.4zm3.5 1.6c-.1.3-.4.6-.8.7-.2.1-.3.1-.5.1s-.4 0-.6-.1c-.4-.2-.6-.4-.7-.8-.1-.4-.1-.8 0-1.1.1-.2.7-1.2 3.9-5.2-.7 3.9-1.1 6-1.3 6.4z"></path>
  <path fill="#2b2e63" d="M32 10.8c-17.6 0-32 14.4-32 32 0 .5.4 1 1 1h17.8c.5 0 1-.4 1-1 0-6.8 5.5-12.2 12.2-12.2s12.2 5.5 12.2 12.2c0 .5.4 1 1 1H63c.5 0 1-.4 1-1 0-17.6-14.3-32-32-32zm-14.1 31H2c.2-7.5 3.3-14.4 8.1-19.6l11.2 11.2c-2 2.4-3.2 5.3-3.4 8.4zM32 28.6c-3.6 0-6.8 1.3-9.3 3.5L11.5 20.9c5.4-5.1 12.6-8.2 20.5-8.2s15.2 3.1 20.5 8.2L41.3 32.1c-2.5-2.1-5.7-3.5-9.3-3.5zm14.2 13.2c-.2-3.2-1.5-6.1-3.5-8.3l11.2-11.2c4.8 5.2 7.9 12 8.1 19.6H46.2z"></path>
  <path fill="#f26e61" d="M10.1 22.3c-4.8 5.2-7.9 12-8.1 19.6h15.9c.2-3.2 1.5-6.1 3.5-8.3L10.1 22.3zm-3 11.2c0-.8.7-1.5 1.4-1.5.8 0 1.5.7 1.5 1.5S9.4 35 8.6 35c-.8 0-1.5-.7-1.5-1.5zm6.3 5.5c-.2.1-.3.2-.5.2-.3 0-.6-.2-.8-.4-.1-.2-.6-.7-1-.7-.5 0-1 .4-1.3.8-.3.4-1 .5-1.4.1-.4-.3-.5-1-.1-1.4.9-1.1 1.9-1.6 2.9-1.5 1.5.1 2.4 1.5 2.5 1.6.2.5.1 1.1-.3 1.3zm-.2-4c-.8 0-1.5-.7-1.5-1.5s.6-1.5 1.5-1.5c.8 0 1.4.7 1.4 1.5S14 35 13.2 35z"></path>
  <path fill="#51bf9f" d="M53.9 22.3 42.7 33.5c2 2.3 3.2 5.2 3.5 8.3H62c-.2-7.5-3.2-14.4-8.1-19.5zm-4.5 10.9c0-.8.7-1.5 1.5-1.5s1.4.7 1.4 1.5-.6 1.5-1.4 1.5c-.9 0-1.5-.7-1.5-1.5zM56 38c-.8 1-1.7 1.5-2.7 1.5h-.1c-1.5 0-2.5-1.3-2.6-1.4-.3-.4-.2-1 .2-1.4s1-.2 1.4.2c.1.2.6.6 1.1.6.4 0 .8-.3 1.3-.8.4-.4 1-.5 1.4-.1.3.4.4 1 0 1.4zm-.6-3.3c-.8 0-1.4-.7-1.4-1.5s.6-1.5 1.4-1.5c.8 0 1.5.7 1.5 1.5s-.7 1.5-1.5 1.5z"></path>
  <path fill="#ffdc7c" d="M32 12.7c-7.9 0-15.2 3.1-20.5 8.2l11.2 11.2c2.5-2.2 5.8-3.5 9.3-3.5s6.8 1.3 9.3 3.5l11.2-11.2c-5.3-5.1-12.6-8.2-20.5-8.2zm-4.2 6.8c0-.8.6-1.5 1.5-1.5.8 0 1.4.6 1.4 1.5 0 .8-.6 1.5-1.4 1.5-.8-.1-1.5-.7-1.5-1.5zm6.1 5.2h-3.8c-.5 0-1-.4-1-1 0-.5.4-1 1-1h3.8c.5 0 1 .4 1 1s-.5 1-1 1zm.8-3.8c-.8 0-1.5-.6-1.5-1.5 0-.8.7-1.5 1.5-1.5s1.4.6 1.4 1.5c.1.9-.6 1.5-1.4 1.5z"></path>
  <path fill="#e15e5a" d="M11.5 23.7C7.1 28.5 4.3 34.8 4 41.8H2c.2-7.5 3.3-14.4 8.1-19.6l1.4 1.5z"></path>
  <path fill="#3da580" d="M62 41.8h-2c-.2-7-3-13.4-7.5-18.1l1.4-1.4c4.9 5.1 7.9 12 8.1 19.5z"></path>
  <path fill="#ecc25d" d="m52.5 20.9-1.4 1.4c-5-4.7-11.7-7.6-19.1-7.6-7.4 0-14.1 2.9-19.1 7.6l-1.4-1.4c5.4-5.1 12.6-8.2 20.5-8.2s15.2 3.1 20.5 8.2z"></path>
  <path fill="#2b2e63" d="M29.3 18c-.8 0-1.5.6-1.5 1.5 0 .8.6 1.5 1.5 1.5.8 0 1.4-.6 1.4-1.5 0-.8-.6-1.5-1.4-1.5zm0 2c-.3 0-.5-.2-.5-.5s.2-.5.5-.5.5.2.5.5c0 .2-.3.5-.5.5z"></path>
  <path fill="#d7e9f2" d="M29.8 19.5c0 .3-.2.5-.5.5s-.5-.2-.5-.5.2-.5.5-.5c.2 0 .5.2.5.5z"></path>
  <path fill="#2b2e63" d="M34.7 18c-.8 0-1.5.6-1.5 1.5 0 .8.7 1.5 1.5 1.5s1.4-.6 1.4-1.5c.1-.8-.6-1.5-1.4-1.5zm0 2c-.3 0-.5-.2-.5-.5s.2-.5.5-.5.5.2.5.5c0 .2-.2.5-.5.5z"></path>
  <path fill="#d7e9f2" d="M35.2 19.5c0 .3-.2.5-.5.5s-.5-.2-.5-.5.2-.5.5-.5.5.2.5.5z"></path>
  <path fill="#2b2e63" d="M34.9 23.8c0 .5-.4 1-1 1h-3.8c-.5 0-1-.4-1-1 0-.5.4-1 1-1h3.8c.5 0 1 .4 1 1zM8.6 32.1c-.8 0-1.4.7-1.4 1.5S7.8 35 8.6 35c.8 0 1.5-.7 1.5-1.5s-.7-1.4-1.5-1.4zm0 1.9c-.3 0-.5-.2-.5-.5s.2-.5.5-.5.5.2.5.5-.3.5-.5.5z"></path>
  <path fill="#d7e9f2" d="M9.1 33.5c0 .3-.2.5-.5.5s-.5-.2-.5-.5.2-.5.5-.5c.2 0 .5.2.5.5z"></path>
  <path fill="#2b2e63" d="M13.2 32.1c-.8 0-1.5.7-1.5 1.5s.6 1.5 1.5 1.5c.8 0 1.4-.7 1.4-1.5s-.6-1.5-1.4-1.5zm0 1.9c-.3 0-.5-.2-.5-.5s.3-.5.5-.5c.3 0 .5.2.5.5s-.2.5-.5.5z"></path>
  <path fill="#d7e9f2" d="M13.7 33.5c0 .3-.2.5-.5.5s-.5-.2-.5-.5.3-.5.5-.5c.3 0 .5.2.5.5z"></path>
  <path fill="#2b2e63" d="M13.4 39c-.2.1-.3.2-.5.2-.3 0-.6-.2-.8-.4-.1-.2-.6-.7-1-.7-.5 0-1 .4-1.3.8-.3.4-1 .5-1.4.1-.4-.3-.5-1-.1-1.4.9-1.1 1.9-1.6 2.9-1.5 1.5.1 2.4 1.5 2.5 1.6.2.5.1 1.1-.3 1.3zM56 38c-.8 1-1.7 1.5-2.7 1.5h-.1c-1.5 0-2.5-1.3-2.6-1.4-.3-.4-.2-1 .2-1.4s1-.2 1.4.2c.1.2.6.6 1.1.6.4 0 .8-.3 1.3-.8.4-.4 1-.5 1.4-.1.3.4.4 1 0 1.4zm-.6-6.2c-.8 0-1.4.7-1.4 1.5s.6 1.5 1.4 1.5c.8 0 1.5-.7 1.5-1.5 0-.9-.7-1.5-1.5-1.5zm0 1.9c-.3 0-.5-.2-.5-.5s.2-.5.5-.5.5.2.5.5-.2.5-.5.5z"></path>
  <path fill="#d7e9f2" d="M55.9 33.2c0 .3-.2.5-.5.5s-.5-.2-.5-.5.2-.5.5-.5c.3.1.5.3.5.5z"></path>
  <path fill="#2b2e63" d="M50.9 31.8c-.8 0-1.5.7-1.5 1.5s.7 1.5 1.5 1.5 1.4-.7 1.4-1.5c0-.9-.6-1.5-1.4-1.5zm0 1.9c-.3 0-.5-.2-.5-.5s.2-.5.5-.5.5.2.5.5c-.1.3-.3.5-.5.5z"></path>
  <path fill="#d7e9f2" d="M51.3 33.2c0 .3-.2.5-.5.5s-.5-.2-.5-.5.2-.5.5-.5c.3.1.5.3.5.5z"></path>
</svg>