<svg xmlns="http://www.w3.org/2000/svg" width="24" height="24" viewBox="0 0 24 24" id="loading">
  <g>
    <path d="M7.3 15.7A5.92 5.92 0 0 1 6 12H2a9.89 9.89 0 0 0 2.46 6.54ZM12 2A10 10 0 0 0 5.45 4.45L8.29 7.29A6 6 0 0 1 18 12h4A10 10 0 0 0 12 2Z" style="fill:#669df6"></path>
    <circle id="Oval-2" cx="8" cy="19" r="2" style="fill:#aecbfa"></circle>
    <circle id="Oval-2-2" cx="19" cy="16" r="2" style="fill:#4285f4"></circle>
    <circle id="Oval-2-3" cx="14" cy="20" r="2" style="fill:#669df6"></circle>
    <path d="M6,12H2a10,10,0,0,0,.44,2.91l4-.79A6,6,0,0,1,6,12Z" style="fill:#4285f4"></path>
    <g>
      <g>
        <circle id="Oval-2-4" cx="5" cy="8" r="2" style="fill:#aecbfa"></circle>
      </g>
    </g>
    <path d="M17.61,9.88A6,6,0,0,1,18,12h4a10,10,0,0,0-.43-2.91Z" style="fill:#4285f4"></path>
  </g>
</svg>